<?xml version="1.0" encoding="utf-8"?>
<!-- Generator: Adobe Illustrator 22.1.0, SVG Export Plug-In . SVG Version: 6.00 Build 0)  -->
<svg version="1.1" id="Слой_1" xmlns="http://www.w3.org/2000/svg" xmlns:xlink="http://www.w3.org/1999/xlink" x="0px" y="0px"
	 viewBox="0 0 242.2 58" style="enable-background:new 0 0 242.2 58;" xml:space="preserve">
<style type="text/css">
	.st0{fill:#283149;}
	.st1{fill:#283149;stroke:#FFFFFF;stroke-width:0.4;stroke-miterlimit:10;}
	.st2{fill:#00E5E9;}
	.st3{fill:#00818A;stroke:#00818A;stroke-miterlimit:10;}
	.st4{enable-background:new    ;}
	.st5{fill:#00818A;}
	.st6{fill:#FFFFFF;}
</style>
<g id="Logo" transform="translate(-821 -16)">
	<path id="Rectangle_13" class="st0" d="M850,16h184.2c16,0,29,13,29,29l0,0c0,16-13,29-29,29H850c-16,0-29-13-29-29l0,0
		C821,29,834,16,850,16z"/>
	<g id="Ресурс_3" transform="translate(831.393 24.478)">
		<ellipse id="Ellipse_11" class="st1" cx="20.7" cy="19.7" rx="20.7" ry="19.7"/>
		<ellipse id="Ellipse_12" class="st1" cx="21.4" cy="19.4" rx="17.2" ry="16.3"/>
		<ellipse id="Ellipse_13" class="st1" cx="23.5" cy="21.1" rx="10.1" ry="11.6"/>
		<ellipse id="Ellipse_14" class="st2" cx="23.5" cy="21.1" rx="2.1" ry="2"/>
		<ellipse id="Ellipse_15" class="st3" cx="18.6" cy="10.7" rx="1.5" ry="1.5"/>
		<ellipse id="Ellipse_16" class="st3" cx="6.6" cy="12.9" rx="2.3" ry="2.2"/>
		<ellipse id="Ellipse_17" class="st3" cx="13.1" cy="38.6" rx="2.8" ry="2.6"/>
	</g>
	<g class="st4">
		<path class="st5" d="M889.8,37.4V54h-1.6V37.4h-4.3v-1.6h10.3v1.6H889.8z"/>
	</g>
	<g class="st4">
		<path class="st6" d="M897.8,54V35.8H908v1.6h-8.6v6.8h7v1.6h-7v6.8h8.6V54H897.8z"/>
		<path class="st6" d="M921.8,51.5c-0.2,0.5-0.6,1-1,1.4s-0.9,0.7-1.4,1c-0.5,0.2-1.1,0.3-1.7,0.3h-1.3c-0.6,0-1.2-0.1-1.7-0.3
			c-0.5-0.2-1-0.6-1.4-1s-0.7-0.9-1-1.4s-0.3-1.1-0.3-1.7V40c0-0.6,0.1-1.2,0.3-1.7s0.6-1,1-1.4s0.9-0.7,1.4-1
			c0.5-0.2,1.1-0.3,1.7-0.3h1.3c0.6,0,1.2,0.1,1.7,0.3c0.5,0.2,1,0.6,1.4,1s0.7,0.9,1,1.4s0.3,1.1,0.3,1.7v0.7l-1.6,0.3v-1
			c0-0.4-0.1-0.8-0.2-1.1c-0.2-0.4-0.4-0.7-0.6-0.9s-0.6-0.5-0.9-0.6s-0.7-0.2-1.1-0.2h-1.1c-0.4,0-0.8,0.1-1.1,0.2
			s-0.7,0.4-0.9,0.6s-0.5,0.6-0.6,0.9c-0.2,0.4-0.2,0.7-0.2,1.1v9.8c0,0.4,0.1,0.8,0.2,1.1c0.2,0.4,0.4,0.7,0.6,0.9
			c0.3,0.3,0.6,0.5,0.9,0.6s0.7,0.2,1.1,0.2h1.1c0.4,0,0.8-0.1,1.1-0.2s0.7-0.4,0.9-0.6c0.3-0.3,0.5-0.6,0.6-0.9
			c0.2-0.4,0.2-0.7,0.2-1.1v-1l1.6,0.3v0.7C922.2,50.4,922.1,51,921.8,51.5z"/>
		<path class="st6" d="M935.5,54v-8.3h-7V54h-1.6V35.8h1.6v8.3h7v-8.3h1.6V54H935.5z"/>
	</g>
	<g class="st4">
		<path class="st5" d="M951.9,51.5c-0.2,0.5-0.6,1-1,1.4s-0.9,0.7-1.4,1c-0.5,0.2-1.1,0.3-1.7,0.3h-1.3c-0.6,0-1.2-0.1-1.7-0.3
			c-0.5-0.2-1-0.6-1.4-1c-0.4-0.4-0.7-0.9-1-1.4s-0.3-1.1-0.3-1.7v-14h1.6v14c0,0.4,0.1,0.8,0.2,1.1c0.2,0.4,0.4,0.7,0.6,0.9
			c0.3,0.3,0.6,0.5,0.9,0.6c0.4,0.2,0.7,0.2,1.1,0.2h1.1c0.4,0,0.8-0.1,1.1-0.2c0.4-0.2,0.7-0.4,0.9-0.6c0.3-0.3,0.5-0.6,0.6-0.9
			c0.2-0.4,0.2-0.7,0.2-1.1v-14h1.6v14C952.3,50.4,952.2,51,951.9,51.5z"/>
	</g>
	<g class="st4">
		<path class="st6" d="M966.6,54L959,40.7l-0.2-0.8v14h-1.6V35.8h0.9l7.6,13.3l0.2,0.8v-14h1.6V54H966.6z"/>
		<path class="st6" d="M972.7,54V35.8h1.6V54H972.7z"/>
		<path class="st6" d="M983.4,50l0.1,0.7l0.1-0.7l4-14.2h1.7L983.9,54H983l-5.3-18.2h1.7L983.4,50z"/>
		<path class="st6" d="M992.6,54V35.8h10.2v1.6h-8.6v6.8h7v1.6h-7v6.8h8.6V54H992.6z"/>
		<path class="st6" d="M1015.6,54l-4.9-7.8h-2.2V54h-1.6V35.8h5.8c0.6,0,1.2,0.1,1.7,0.3c0.5,0.2,1,0.6,1.4,1s0.7,0.9,1,1.4
			c0.2,0.5,0.3,1.1,0.3,1.7v1.5c0,0.6-0.1,1.2-0.3,1.7c-0.2,0.5-0.6,1-1,1.4s-0.9,0.7-1.4,1c-0.5,0.2-1.1,0.3-1.7,0.3l4.9,7.8
			H1015.6z M1015.4,40.3c0-0.4-0.1-0.8-0.2-1.1c-0.2-0.4-0.4-0.7-0.6-0.9c-0.3-0.3-0.6-0.5-0.9-0.6c-0.4-0.2-0.7-0.2-1.1-0.2h-4.1
			v7.3h4.1c0.4,0,0.8-0.1,1.1-0.2c0.4-0.2,0.7-0.4,0.9-0.6c0.3-0.3,0.5-0.6,0.6-0.9c0.2-0.4,0.2-0.7,0.2-1.1V40.3z"/>
		<path class="st6" d="M1031.6,49.8c0,0.6-0.1,1.2-0.4,1.7c-0.3,0.5-0.6,1-1,1.4s-0.9,0.7-1.5,1c-0.6,0.2-1.1,0.3-1.8,0.3h-1.3
			c-0.6,0-1.2-0.1-1.8-0.3c-0.6-0.2-1-0.6-1.5-1s-0.8-0.9-1-1.4c-0.3-0.5-0.4-1.1-0.4-1.7v-0.7l1.6-0.3v1c0,0.4,0.1,0.8,0.2,1.1
			c0.2,0.4,0.4,0.7,0.7,0.9c0.3,0.3,0.6,0.5,1,0.6s0.8,0.2,1.2,0.2h1.1c0.4,0,0.8-0.1,1.2-0.2c0.4-0.2,0.7-0.4,1-0.6
			c0.3-0.3,0.5-0.6,0.7-0.9c0.2-0.4,0.2-0.7,0.2-1.1v-0.5c0-0.6-0.1-1.1-0.4-1.6c-0.2-0.4-0.6-0.8-1-1.1c-0.4-0.3-0.9-0.5-1.4-0.7
			c-0.5-0.2-1-0.4-1.6-0.6c-0.5-0.2-1.1-0.4-1.6-0.7c-0.5-0.2-1-0.6-1.4-0.9c-0.4-0.4-0.7-0.8-1-1.4c-0.2-0.5-0.4-1.2-0.4-2V40
			c0-0.6,0.1-1.2,0.3-1.7c0.2-0.5,0.6-1,1-1.4s0.9-0.7,1.4-1c0.5-0.2,1.1-0.3,1.7-0.3h1.2c0.6,0,1.2,0.1,1.7,0.3
			c0.5,0.2,1,0.6,1.4,1s0.7,0.9,1,1.4c0.2,0.5,0.3,1.1,0.3,1.7v0.5l-1.6,0.3V40c0-0.4-0.1-0.8-0.2-1.1c-0.2-0.4-0.4-0.7-0.6-0.9
			c-0.3-0.3-0.6-0.5-0.9-0.6c-0.4-0.2-0.7-0.2-1.1-0.2h-1c-0.4,0-0.8,0.1-1.1,0.2c-0.4,0.2-0.7,0.4-0.9,0.6s-0.5,0.6-0.6,0.9
			c-0.2,0.4-0.2,0.7-0.2,1.1v0.3c0,0.6,0.1,1.1,0.4,1.5c0.2,0.4,0.6,0.7,1,1c0.4,0.3,0.9,0.5,1.4,0.7c0.5,0.2,1,0.4,1.6,0.6
			c0.5,0.2,1.1,0.5,1.6,0.7c0.5,0.3,1,0.6,1.4,1c0.4,0.4,0.7,0.8,1,1.4c0.2,0.5,0.4,1.2,0.4,2V49.8z"/>
		<path class="st6" d="M1036.2,54V35.8h10.2v1.6h-8.6v6.8h7v1.6h-7v6.8h8.6V54H1036.2z"/>
	</g>
</g>
</svg>
