<svg xmlns="http://www.w3.org/2000/svg" viewBox="0 0 20.833 20.833">
  <defs>
    <style>
      .cls-1 {
        fill: #00818a;
      }
    </style>
  </defs>
  <path id="shop-cart" class="cls-1" d="M6.25,16.667A2.083,2.083,0,1,0,8.333,18.75,2.081,2.081,0,0,0,6.25,16.667ZM0,0V2.083H2.083L5.833,9.99,4.427,12.542a2.014,2.014,0,0,0-.26,1A2.089,2.089,0,0,0,6.25,15.625h12.5V13.542H6.688a.258.258,0,0,1-.26-.26l.031-.125.938-1.7h7.76a2.073,2.073,0,0,0,1.823-1.073l3.729-6.76a1.017,1.017,0,0,0,.125-.5,1.045,1.045,0,0,0-1.042-1.042H4.385L3.406,0ZM16.667,16.667A2.083,2.083,0,1,0,18.75,18.75,2.08,2.08,0,0,0,16.667,16.667Z"/>
</svg>
